PathFileType	4	(X/Y/Z)	s11c0301.trc
DataRate	CameraRate	NumFrames	NumMarkers	Units	OrigDataRate	OrigDataStartFrame	OrigNumFrames
200	200	5	48	mm	200	1000	2000
Frame#	Time	racr			lacr			c7			jug			rlel			rdr			llel			ldr			s2			lic			ric			lasi			rasi			rpsi			lpsi			rgt			lgt			rth1			rth2			rth3			rth4			rlfc			rmfc			rsh1			rsh2			rsh3			rsh4			rlmal			rcal			rtoe			rmt5			lth1			lth2			lth4			lth3			llfc			lmfc			llmal			lcal			lmt5			lsh1			lsh2			lsh3			lsh4			ltoe			SBIKE			LBIKE			RBIKE			
		X1	Y1	Z1	X2	Y2	Z2	X3	Y3	Z3	X4	Y4	Z4	X5	Y5	Z5	X6	Y6	Z6	X7	Y7	Z7	X8	Y8	Z8	X9	Y9	Z9	X10	Y10	Z10	X11	Y11	Z11	X12	Y12	Z12	X13	Y13	Z13	X14	Y14	Z14	X15	Y15	Z15	X16	Y16	Z16	X17	Y17	Z17	X18	Y18	Z18	X19	Y19	Z19	X20	Y20	Z20	X21	Y21	Z21	X22	Y22	Z22	X23	Y23	Z23	X24	Y24	Z24	X25	Y25	Z25	X26	Y26	Z26	X27	Y27	Z27	X28	Y28	Z28	X29	Y29	Z29	X30	Y30	Z30	X31	Y31	Z31	X32	Y32	Z32	X33	Y33	Z33	X34	Y34	Z34	X35	Y35	Z35	X36	Y36	Z36	X37	Y37	Z37	X38	Y38	Z38	X39	Y39	Z39	X40	Y40	Z40	X41	Y41	Z41	X42	Y42	Z42	X43	Y43	Z43	X44	Y44	Z44	X45	Y45	Z45	X46	Y46	Z46	X47	Y47	Z47	X48	Y48	Z48	
1000	5.0000	802.008385	1403.624519	-39.487471	810.536487	1384.080025	-379.505191	776.392820	1486.731477	-213.140893	757.122409	1295.927164	-206.551648	678.544946	1150.267832	60.883468	796.451183	930.041932	-61.396439	674.251608	1176.631962	-584.887942	799.685435	927.891404	-473.960010	173.864194	1285.737606	-234.891505	401.140580	1249.460887	-419.459855	390.412001	1280.475915	-29.153051	415.781312	1184.084967	-377.093912	407.907757	1210.854478	-70.865156	230.170404	1351.822231	-188.873145	227.747740	1340.058760	-282.102783	337.742830	1151.511930	-3.601928	260.654075	1137.868104	-425.251082	454.145272	1065.878381	-3.270387	536.927766	1033.011102	-14.639884	592.155319	966.450051	-24.275261	555.938822	1062.247379	-26.563613	672.569114	894.982798	-44.144164	674.341843	880.450298	-179.687157	559.830952	789.155392	-43.415893	505.985372	725.141655	-68.784074	424.867511	691.942780	-75.610160	523.894132	708.821217	-99.807612	303.094484	623.375658	-94.668396	255.297771	669.075654	-144.076251	380.887888	410.264657	-153.472519	323.251149	453.683191	-81.791725	272.085264	1006.203786	-440.990121	294.344362	924.251463	-435.648037	331.204033	923.563943	-432.093852	271.627327	837.525172	-426.442095	271.668728	695.634210	-406.024054	291.146140	679.778444	-275.826526	140.136169	284.274766	-410.658802	79.815919	270.796058	-378.341069	243.463916	145.767602	-454.841073	220.592513	579.900498	-431.509849	222.311753	494.180372	-424.981716	180.747305	416.305011	-423.125458	255.854920	487.224887	-407.085964	343.434585	130.504188	-389.614997	-215.119053	956.640980	-256.634386	-17.764564	80.837954	-460.982842	-17.688378	81.024707	-62.148369	
1001	5.0050	801.306126	1403.562288	-36.253586	811.276996	1386.327160	-375.794878	776.327131	1486.826336	-209.678169	756.639557	1295.284829	-204.123382	677.995258	1149.980277	62.325737	796.389645	930.308766	-61.066839	678.166264	1178.975326	-582.997048	800.362022	927.974781	-473.776214	173.487197	1287.172107	-236.107922	403.110292	1250.063851	-418.811622	388.824945	1282.036402	-28.870046	417.195041	1183.875389	-377.022704	407.162337	1212.854833	-70.835042	229.879637	1353.028356	-190.850078	228.058065	1341.573942	-284.019977	337.874695	1153.903455	-4.454456	261.218947	1139.337892	-425.666871	454.858991	1069.030583	-3.708317	538.189106	1036.854655	-15.259114	594.258711	970.481828	-26.477051	556.925516	1066.343662	-27.204140	676.231470	901.150936	-45.345693	676.606226	886.823547	-181.744582	565.796548	793.612400	-44.536751	513.348438	728.119669	-69.553101	432.714766	693.647539	-76.295969	531.133663	712.301182	-100.959810	310.299201	622.449745	-95.020423	261.262592	667.157871	-144.324963	392.630418	411.161774	-153.848838	334.322612	453.228787	-82.015554	271.152960	1008.099926	-440.850873	292.787355	925.994207	-435.862516	329.667159	925.018460	-432.845601	269.483634	839.398745	-426.681218	269.227728	697.487583	-407.144189	291.147098	680.419772	-276.965564	132.315918	287.729599	-410.143479	71.927956	275.158823	-377.508685	233.079968	147.358903	-454.626869	217.176318	582.063395	-431.844108	217.691094	496.269072	-425.293276	174.989267	419.169717	-422.978353	251.368696	488.921785	-407.693604	333.047685	130.340086	-389.762929	-215.131617	956.669572	-256.527062	-17.764134	80.879773	-460.953111	-17.689097	81.046710	-62.140230	
1002	5.0100	800.801463	1403.123456	-33.389525	811.897357	1388.270496	-372.141789	776.289470	1486.669146	-206.507814	756.089416	1294.431047	-201.800593	677.405982	1149.588714	63.533862	796.343370	930.546910	-60.804757	681.662763	1181.282282	-581.181012	800.932376	927.991700	-473.523356	173.562397	1288.952173	-237.162723	404.817641	1250.658965	-418.373378	387.394001	1283.806553	-28.401683	418.318587	1183.845706	-377.327603	406.481807	1214.884882	-70.663300	228.476182	1355.124016	-191.261278	228.426553	1343.322134	-285.444106	338.366428	1155.958922	-4.874256	261.638793	1141.036299	-425.954665	455.320013	1071.563011	-3.719969	539.337652	1040.646527	-16.023797	595.995568	974.517590	-27.758976	556.278502	1070.723654	-27.307450	679.513435	907.132624	-47.475363	679.911312	894.001013	-183.331420	570.789393	796.897653	-46.007617	519.637602	730.622363	-70.448822	439.631481	694.423164	-76.781085	539.580470	715.123028	-101.207094	317.105312	620.705861	-95.333044	266.766613	664.288853	-144.524397	404.285311	411.541908	-154.221225	345.166283	452.278052	-82.262342	270.711210	1010.010608	-440.724404	291.999021	927.870698	-436.121327	328.849192	926.715199	-433.588078	268.355211	841.410902	-427.326873	268.275650	699.335528	-408.445997	292.064447	681.205126	-278.309165	124.605738	291.565459	-409.731977	64.312346	280.067518	-376.335071	222.665038	149.636679	-454.450942	215.105631	584.460041	-432.448709	213.995417	498.725874	-425.638616	169.856487	422.438470	-423.049000	247.684197	490.725165	-408.316065	322.724559	130.934158	-390.390563	-215.159025	956.730742	-256.473669	-17.775872	80.904764	-460.933195	-17.693212	81.095208	-62.144750	
1003	5.0150	800.448215	1402.550579	-30.795081	812.248403	1389.824220	-368.412051	776.413928	1486.151531	-203.290910	755.474378	1293.388015	-199.588976	676.904981	1148.992850	64.621216	796.266096	930.798426	-60.558012	684.834521	1183.406562	-579.447774	801.476996	927.945783	-473.295555	174.213682	1290.642694	-238.368556	406.084176	1251.565821	-417.875563	385.906279	1285.726609	-28.132323	419.089464	1184.319706	-377.360599	405.908151	1216.973255	-70.398734	228.136724	1357.150716	-192.201816	228.484711	1345.310070	-286.968853	338.974495	1158.376665	-4.968860	261.877330	1143.045560	-426.158609	455.987346	1074.481059	-4.097456	540.351240	1044.255760	-16.927361	597.445651	978.589993	-29.035826	556.912980	1074.629757	-28.245798	681.590936	912.717435	-49.295839	683.095209	900.503758	-184.978597	574.805321	799.821250	-46.918966	524.540642	731.783067	-71.547216	445.320284	694.272371	-77.323251	543.682429	716.795388	-102.854759	323.564411	618.398053	-95.618008	271.910638	660.644473	-144.616344	415.698063	411.494624	-154.582283	355.733142	450.688054	-82.470738	270.829311	1012.235327	-440.727718	292.035372	929.953481	-436.498818	328.876722	928.676689	-434.269009	268.391209	843.358903	-428.224422	268.890744	700.966493	-410.030622	294.105661	681.903928	-280.036274	117.207921	296.057276	-409.267425	56.792534	285.516159	-375.236585	212.613799	152.645405	-454.160391	214.322582	587.026225	-433.307778	211.262671	501.261347	-426.151184	165.405348	426.041111	-423.154365	244.842867	492.673425	-408.968227	312.499349	132.162788	-390.721120	-215.161511	956.773913	-256.418438	-17.781176	80.935418	-460.929299	-17.689615	81.114667	-62.137488	
1004	5.0200	800.117074	1402.782837	-27.213327	812.518586	1390.966762	-364.762437	776.642834	1485.371978	-200.266729	754.796713	1292.177439	-197.494263	676.281447	1148.324362	65.477579	796.144701	931.092214	-60.301563	687.645677	1185.359413	-577.759349	801.861235	927.899352	-473.008284	174.343359	1292.991841	-238.461341	406.804641	1252.738167	-417.447770	384.762030	1287.598723	-27.987154	419.433177	1185.834845	-376.993952	405.402865	1219.065003	-70.112603	227.729897	1359.337233	-192.569472	228.963753	1347.986980	-286.927237	339.495589	1161.001597	-4.854310	261.954226	1145.175388	-426.140369	456.674156	1077.406566	-5.336690	541.253869	1047.629786	-18.290663	598.493343	982.192360	-30.563105	559.022290	1077.702157	-30.072091	683.543392	918.104623	-52.045863	684.996079	904.852844	-187.217092	577.638997	801.241454	-48.688261	527.579705	732.076021	-73.430793	450.002691	693.390486	-78.051881	547.771995	717.501719	-104.160230	329.557346	615.188856	-95.709263	276.593384	656.216760	-144.676989	426.944605	410.929690	-154.929456	366.129428	448.454266	-82.693247	271.390210	1014.194675	-440.545401	292.903021	932.052293	-436.915551	329.772561	930.908315	-434.918503	269.656293	845.194639	-429.210896	270.943174	702.514775	-411.693294	296.984763	682.964426	-282.028943	110.202834	301.249026	-408.616529	49.710910	291.730701	-374.628493	203.026956	156.287124	-453.766508	214.746189	589.596220	-434.359051	209.405771	504.119422	-426.713275	161.630298	430.032924	-423.306208	242.797414	494.823293	-409.676184	302.502529	133.848407	-390.535102	-215.146178	956.812696	-256.378291	-17.791465	80.969705	-460.920780	-17.695290	81.142342	-62.136543	
